HIERARCHY
ROOT hip
{
  OFFSET 0.0 0.0 0.0
  CHANNELS 6 Xposition Yposition Zposition Zrotation Yrotation Xrotation
  JOINT torso
  {
    OFFSET 0.0 0.0 0.0
    CHANNELS 3 Zrotation Xrotation Yrotation
    JOINT neck
    {
      OFFSET -8.059630999999968 325.56260699999996 64.6221310000002
      CHANNELS 3 Zrotation Xrotation Yrotation
      JOINT head
      {
        OFFSET 34.685424000000125 375.1179809999999 232.79357900000002
        CHANNELS 3 Zrotation Xrotation Yrotation
        End Site
        {
          OFFSET 0.0 0.0 0.0
        }
      }
    }
    JOINT left_collar
    {
      OFFSET -8.059630999999968 325.56260699999996 64.6221310000002
      CHANNELS 3 Zrotation Xrotation Yrotation
      JOINT left_upper_arm
      {
        OFFSET -124.124665 -15.370300999999927 25.582641999999964
        CHANNELS 3 Zrotation Xrotation Yrotation
        JOINT left_forearm
        {
          OFFSET -268.19913399999996 105.06054699999993 114.74548300000004
          CHANNELS 3 Zrotation Xrotation Yrotation
          JOINT left_hand
          {
            OFFSET -235.82003099999991 -10.198180999999977 -38.67455999999993
            CHANNELS 3 Zrotation Xrotation Yrotation
            End Site
            {
              OFFSET 0.0 0.0 0.0
            }
          }
        }
      }
    }
    JOINT right_collar
    {
      OFFSET -8.059630999999968 325.56260699999996 64.6221310000002
      CHANNELS 3 Zrotation Xrotation Yrotation
      JOINT right_upper_arm
      {
        OFFSET 162.73931899999997 -2.8598030000000563 26.244994999999903
        CHANNELS 3 Zrotation Xrotation Yrotation
        JOINT right_forearm
        {
          OFFSET 284.6506340000001 103.07031299999994 145.84521499999994
          CHANNELS 3 Zrotation Xrotation Yrotation
          JOINT right_hand
          {
            OFFSET 226.332337 -12.198241999999937 -49.27258299999994
            CHANNELS 3 Zrotation Xrotation Yrotation
            End Site
            {
              OFFSET 0.0 0.0 0.0
            }
          }
        }
      }
    }
  }
}
MOTION
Frames: 16
Frame Time: 0.01
402.62457399646047 222.1319676623377 730.0515192411001 -0.7095670915243574 3.677387112761298 -0.49549048939955176 -0.1140508226097323 -2.5701208765366563 -0.03826846500515884 -1.4531181751919768 -4.782059599592896 1.3709611860609188 0.0 0.0 0.0 0.136885282240108 -0.0970282985471267 1.002994522011942 4.9401882187846295 2.6469650956608026 1.7042203223694385 -1.6383304346539052 0.3745033586244698 -3.7306613430156608 0.0 0.0 0.0 0.07358636774267803 0.018612694957323886 1.7973580436860102 -2.0445464948266023 1.4875331816119113 -1.3315858974233388 9.129448923929434 1.646261270958398 11.59521803381645 0.0 0.0 0.0
402.53258080094287 221.88880982705757 729.6309949291351 -0.6959663828324866 3.649057591595156 -0.4072726296147419 -0.11315826997746221 -2.572763417632314 -0.03852716688314172 -1.445826148961978 -4.768707822567288 1.3649651629517074 0.0 0.0 0.0 0.13735128629890528 -0.09354081450586646 0.97575528504145 5.137392659902799 2.818744909634935 1.9901206838512728 -2.1552090415941745 0.46366814817990204 -4.647918902860792 0.0 0.0 0.0 0.05766168592944958 0.020523620395172477 1.744038240718265 -2.2484844280459386 1.6500663465446817 -1.5210240552398777 8.668734089570746 1.606984629233671 11.072490834742348 0.0 0.0 0.0
402.43865423766414 221.63589419514574 729.2097008645111 -0.6822734602395538 3.6180369546256244 -0.32133337720157495 -0.1123904204885032 -2.5741540874254136 -0.03872891174779935 -1.4395373126361688 -4.754518248688079 1.3595394047447178 0.0 0.0 0.0 0.13784140735052997 -0.09031212800560276 0.9506342860083233 5.339429172113274 2.993809215016949 2.2850813856763623 -2.678660545294321 0.5456402477429108 -5.592434837175602 0.0 0.0 0.0 0.04250984570696544 0.02234948455337049 1.6945631071033125 -2.4596428570475077 1.8177757391753169 -1.7190677737007645 8.209108085834528 1.5637008960448122 10.544963199430278 0.0 0.0 0.0
402.3428779034425 221.3693137569158 728.7848019579151 -0.6685129082244766 3.5835927502160057 -0.23802062118348777 -0.11176358109039754 -2.5740323407846986 -0.038863930433339564 -1.434318384707087 -4.739276059605653 1.35470639278152 0.0 0.0 0.0 0.13854711929521393 -0.08736438348160643 0.9281118958876183 5.54794305243982 3.17388267690683 2.5928818575949366 -3.2071100749479204 0.6198733397537274 -6.573573022370849 0.0 0.0 0.0 0.028303934925864686 0.024074319754127105 1.649618242277463 -2.6807440404318013 1.9931594639554382 -1.9298042191659648 7.75650080721105 1.5168734718521275 10.02713217590873 0.0 0.0 0.0
402.24533861871873 221.08507448244572 728.3529047143211 -0.6547336004425421 3.545061260349515 -0.1575737880157052 -0.11127926445502652 -2.572191069898228 -0.038926974277347176 -1.4301834296038964 -4.722791665221909 1.3504569004925584 0.0 0.0 0.0 0.13968649117494955 -0.08470958900698689 0.9086303023748237 5.764768086410886 3.3607243982702735 2.917419803130072 -3.7384384213166615 0.6856423062819476 -7.601008419528603 0.0 0.0 0.0 0.015210798066659793 0.025681846167674518 1.609784959484082 -2.914646774894947 2.178761320450989 -2.1575512912859756 7.316629033157428 1.4672642083179537 9.534359381828764 0.0 0.0 0.0
402.1461262357292 220.77923604919155 727.9101460284562 -0.641012990182175 3.5018790910927384 -0.08011246939616316 -0.11092237579468762 -2.568489529860116 -0.038918022897592754 -1.4270875410045265 -4.704911227331435 1.346746918514915 0.0 0.0 0.0 0.14150099852191186 -0.0823486068173452 0.8925800884090506 5.991875305665492 3.556051618758533 3.2625681919248364 -4.269844832083002 0.742051146051285 -8.684339625414246 0.0 0.0 0.0 0.00338682686621101 0.02715559772785789 1.575516981160533 -3.1642562081092356 2.377071813693594 -2.4067366739515084 6.894693386768331 1.4158884436907886 9.082402721825469 0.0 0.0 0.0
402.04532900760535 220.44805257482858 727.4522966058622 -0.6274602066162248 3.45361106693773 -0.005625272955418216 -0.11066023695433559 -2.5628640145877233 -0.03884275025862396 -1.4249216944150518 -4.685525737311686 1.343495209094982 0.0 0.0 0.0 0.14425111133202992 -0.08027030714304258 0.8802859682931448 6.231319495814263 3.761464861062671 3.632033679306025 -4.797715994879274 0.7880674218087416 -9.832702898144268 0.0 0.0 0.0 -0.0070270219485468605 0.02847918079162263 1.547117839060244 -3.4324329153246684 2.5904278463650408 -2.6817720191020937 6.495049222977671 1.363934014637409 8.686884980480063 0.0 0.0 0.0
401.943023641176 220.0881079475707 726.9748762876251 -0.6142178053219168 3.3999729950144677 0.06604091989390069 -0.11044255814521607 -2.5553356825241424 -0.03871270977777608 -1.4235090164673816 -4.6645781378614615 1.3405816039441418 0.0 0.0 0.0 0.14821074612593738 -0.07845091829212511 0.8719921174207828 6.48518519381534 3.978377457378166 4.02922174224555 -5.317508679908369 0.8225861600828094 -11.054402183948504 0.0 0.0 0.0 -0.015910896243581135 0.02963668223602377 1.524719807665425 -3.7219039106573644 2.820914713004106 -2.9869258213637684 6.120873811246461 1.3126510762958774 8.362723502667134 0.0 0.0 0.0
401.83925938935573 219.69644043686887 726.4732784061184 -0.6014621099403911 3.3408480218907304 0.1351908790521772 -0.11020241793843176 -2.546015018425437 -0.03854521349454447 -1.4226027295592045 -4.642068053623987 1.3378461724656665 0.0 0.0 0.0 0.1536607422557321 -0.07685361649620795 0.8678477677664669 6.755533611776975 4.207952232064731 4.457113250594737 -5.82365457215544 0.8445246655771079 -12.356568624720685 0.0 0.0 0.0 -0.023172225508357475 0.03061323379345752 1.5082654281248349 -4.035177797175494 3.0702741270546503 -3.3261982840740596 5.773857512403239 1.2632257602836734 8.123552316973635 0.0 0.0 0.0
401.73403581464345 219.2706515725006 725.9429002346945 -0.5894021619302771 3.276295524723274 0.20228951284622348 -0.10985826188074778 -2.535102528009281 -0.038362895404356785 -1.4218860314254262 -4.618053793755832 1.335089395078344 0.0 0.0 0.0 0.16088157414707124 -0.07542840919885085 0.8678939390826882 7.044351681533474 4.45104786616778 4.918156470561132 -6.309496523350207 0.8529476266258449 -13.744861663491813 0.0 0.0 0.0 -0.028752141358953723 0.03139572863719567 1.4974928595336698 -4.374465801676847 3.3398219926856956 -3.7032011685443 5.453947874922835 1.2166553656308465 7.981171201000877 0.0 0.0 0.0
401.6272741631638 218.80899482308712 725.3792766322157 -0.5782773626112032 3.206551768885346 0.267968131554035 -0.10931687982738897 -2.5228854034866597 -0.038192964700957156 -1.420974153415663 -4.592651408707746 1.33207347503099 0.0 0.0 0.0 0.17014554965507095 -0.07411237254065535 0.8720523204226673 7.353504244344319 4.708177100384735 5.414177631039956 -6.767265523457595 0.8472192000114396 -15.223222066321364 0.0 0.0 0.0 -0.0326318100159417 0.031973674179110435 1.491926390401902 -4.741610042805527 3.6303794603504955 -4.12104529833901 5.159172182483027 1.1736444974374394 7.945054478125231 0.0 0.0 0.0
401.51878261768906 218.31044039757347 724.7782141335958 -0.5683539441030647 3.13202192658182 0.33302760733846537 -0.10847727345655009 -2.5097300707909516 -0.03806617023054303 -1.4194188032310087 -4.566030722249222 1.3285249083697683 0.0 0.0 0.0 0.18170876877242317 -0.07283030556026733 0.8801173819290676 7.6846903060960985 4.97947843785174 5.946312204546493 -7.18810687221038 0.8271756286916175 -16.793684778401374 0.0 0.0 0.0 -0.034838294564522004 0.03234015076231357 1.4908734311262868 -5.138020082428988 3.94222046115395 -4.58223809076589 4.885557081338887 1.1345396149351235 8.02194671596388 0.0 0.0 0.0
401.40821603231996 217.774713515825 724.1359229713956 -0.5599204436163004 3.053263467097599 0.3984375516076435 -0.10723527939699738 -2.4960707201014767 -0.03801551214790612 -1.4167151305966454 -4.538408413857198 1.324138401056997 0.0 0.0 0.0 0.19580311931699546 -0.07149585775271476 0.8917527472497477 8.039404222526628 5.264702405289567 6.514958034118029 -7.562162152428553 0.7933086618314363 -18.456256450149393 0.0 0.0 0.0 -0.03544953190526168 0.03249282912255815 1.4934291653248413 -5.564618635032342 4.275038397833524 -5.088593237007621 4.6271553232619 1.0993139974589075 8.215564778218983 0.0 0.0 0.0
401.2950310702257 217.20230468000372 723.4491447444371 -0.5532823801636297 2.9709613605327068 0.46533075542583086 -0.10548877010132116 -2.482394103392911 -0.03807474977115981 -1.4123112498216919 -4.510038386195223 1.318582168961985 0.0 0.0 0.0 0.21262856395630209 -0.07001317044115071 0.9064926633612345 8.418902654747502 5.563212765399493 7.119750479824581 -7.8787106598024454 0.7469470236349623 -20.208858835254105 0.0 0.0 0.0 -0.034597998960669195 0.03243498118731981 1.498489741256902 -6.021797279709507 4.627933998827765 -5.64115448231456 4.376180922534953 1.067607144475361 8.526417451399661 0.0 0.0 0.0
401.17843795407583 216.59445172412597 722.7152735724679 -0.5487563448454884 2.885895942540473 0.5349923993389092 -0.10314321621768426 -2.4692210350637556 -0.03827676497886679 -1.4056202098058201 -4.481199803136872 1.31150457846196 0.0 0.0 0.0 0.2323459349452306 -0.06827904426017631 0.9237490684622955 8.824178131257055 5.874002400410182 7.759558961258662 -8.126370106385316 0.6904208759235018 -22.047335407209847 0.0 0.0 0.0 -0.03247266128258604 0.032176401333917866 1.5047744284389717 -6.5093831469039065 4.999425551350984 -6.2401353967159885 4.12324610403113 1.0388135718114053 8.951746130965752 0.0 0.0 0.0
401.057350302153 215.953094626505 721.9324685419173 -0.5466637143129115 2.7989046450205946 0.6088439121793151 -0.10011736681599721 -2.4570851541207106 -0.038651847023151616 -1.396034131577467 -4.452183310814206 1.3025419890652001 0.0 0.0 0.0 0.2550704179405139 -0.06618560588580677 0.9428243219134139 9.255940047317248 6.195722948561861 8.432503679236428 -8.293352017026498 0.62719306793682 -23.96551487821884 0.0 0.0 0.0 -0.0293188509411785 0.03173414225368934 1.5108565781501975 -7.026617816043996 5.3874818496800145 -6.8848770748376795 3.8576868065391166 1.01220751281279 9.485583344344509 0.0 0.0 0.0
